<svg width="1280" height="659" viewBox="0 0 1280 659" fill="none" xmlns="http://www.w3.org/2000/svg">
<path fill-rule="evenodd" clip-rule="evenodd" d="M0 500.62C0 500.62 0.00949583 500.62 0.056975 500.649C0.0949583 500.677 0.151933 500.715 0.237396 500.772C0.398825 500.886 0.645716 501.057 0.968575 501.285C1.61429 501.75 2.59236 502.443 3.8838 503.354C6.45717 505.177 10.284 507.873 15.2503 511.31C25.1829 518.183 39.7021 528.009 57.9436 539.771C94.3221 563.049 145.638 594.074 202.261 618.672C230.587 630.966 260.224 641.608 290.031 648.823C304.94 652.431 319.886 655.193 334.757 656.921C342.192 657.785 349.608 658.392 356.986 658.715C360.68 658.877 364.355 658.971 368.03 659C368.951 659 369.863 659 370.784 659C371.705 659 372.616 658.99 373.528 658.981C375.361 658.953 377.184 658.915 379.017 658.858C437.634 657.291 492.321 634.991 542.06 593.837C591.135 552.331 638.367 495.598 688.438 438.856C738.472 381.857 796.444 330.525 868.878 296.368C940.277 260.625 1025.88 242.919 1103.17 213.566C1141.6 198.262 1177.39 179.275 1207.39 147.386C1237.5 115.393 1261.82 70.5366 1280 0H0V500.639V500.62Z" fill="#ffad02"/>
</svg>
